<svg width="34" height="21" viewBox="0 0 34 21" fill="none" xmlns="http://www.w3.org/2000/svg">
<mask id="path-1-inside-1_20_48" fill="white">
<path fill-rule="evenodd" clip-rule="evenodd" d="M18.3672 13.5415L18.4445 18.5024C18.4684 20.0418 16.817 21.0299 15.4718 20.281L1.02711 12.2387C-0.318056 11.4897 -0.348035 9.56548 0.973146 8.775L15.1603 0.286668C16.4815 -0.503808 18.163 0.432364 18.1869 1.97178L18.2715 7.39987L30.1603 0.286667C31.4815 -0.503809 33.163 0.432363 33.1869 1.97178L33.4445 18.5024C33.4684 20.0418 31.817 21.0299 30.4718 20.281L18.3672 13.5415Z"/>
</mask>
<path fill-rule="evenodd" clip-rule="evenodd" d="M18.3672 13.5415L18.4445 18.5024C18.4684 20.0418 16.817 21.0299 15.4718 20.281L1.02711 12.2387C-0.318056 11.4897 -0.348035 9.56548 0.973146 8.775L15.1603 0.286668C16.4815 -0.503808 18.163 0.432364 18.1869 1.97178L18.2715 7.39987L30.1603 0.286667C31.4815 -0.503809 33.163 0.432363 33.1869 1.97178L33.4445 18.5024C33.4684 20.0418 31.817 21.0299 30.4718 20.281L18.3672 13.5415Z" fill="#D9D9D9" fill-opacity="0.11"/>
<path d="M18.3672 13.5415L19.3401 11.7941L16.3135 10.109L16.3674 13.5727L18.3672 13.5415ZM18.4445 18.5024L16.4447 18.5336V18.5336L18.4445 18.5024ZM15.4718 20.281L14.4989 22.0284L14.4989 22.0284L15.4718 20.281ZM1.02711 12.2387L2.00001 10.4913H2.00001L1.02711 12.2387ZM0.973146 8.775L2 10.4913V10.4913L0.973146 8.775ZM15.1603 0.286668L16.1872 2.00293V2.00293L15.1603 0.286668ZM18.1869 1.97178L20.1867 1.94062V1.94062L18.1869 1.97178ZM18.2715 7.39987L16.2717 7.43103L16.3257 10.8947L19.2984 9.11614L18.2715 7.39987ZM30.1603 0.286667L31.1872 2.00293V2.00293L30.1603 0.286667ZM33.1869 1.97178L35.1867 1.94062V1.94062L33.1869 1.97178ZM33.4445 18.5024L31.4447 18.5336V18.5336L33.4445 18.5024ZM30.4718 20.281L31.4447 18.5336L30.4718 20.281ZM16.3674 13.5727L16.4447 18.5336L20.4442 18.4712L20.3669 13.5104L16.3674 13.5727ZM16.4447 18.5336L16.4447 18.5336L14.4989 22.0284C17.1892 23.5263 20.4922 21.5501 20.4442 18.4712L16.4447 18.5336ZM16.4447 18.5336L2.00001 10.4913L0.0542079 13.9861L14.4989 22.0284L16.4447 18.5336ZM2.00001 10.4913L2 10.4913L-0.0537125 7.05874C-2.69608 8.63969 -2.63611 12.4882 0.0542084 13.9861L2.00001 10.4913ZM2 10.4913L16.1872 2.00293L14.1335 -1.4296L-0.0537126 7.05874L2 10.4913ZM16.1872 2.00293L16.1872 2.00293L20.1867 1.94062C20.1387 -1.13821 16.7758 -3.01055 14.1335 -1.4296L16.1872 2.00293ZM16.1872 2.00293L16.2717 7.43103L20.2713 7.36872L20.1867 1.94062L16.1872 2.00293ZM19.2984 9.11614L31.1872 2.00293L29.1335 -1.4296L17.2446 5.68361L19.2984 9.11614ZM31.1872 2.00293L31.1872 2.00293L35.1867 1.94062C35.1387 -1.13821 31.7758 -3.01055 29.1335 -1.4296L31.1872 2.00293ZM31.1872 2.00293L31.4447 18.5336L35.4442 18.4712L35.1867 1.94062L31.1872 2.00293ZM31.4447 18.5336L31.4447 18.5336L29.4989 22.0284C32.1892 23.5263 35.4922 21.5501 35.4442 18.4712L31.4447 18.5336ZM31.4447 18.5336L19.3401 11.7941L17.3943 15.289L29.4989 22.0284L31.4447 18.5336Z" fill="white" mask="url(#path-1-inside-1_20_48)"/>
</svg>
