<svg width="34" height="21" viewBox="0 0 34 21" fill="none" xmlns="http://www.w3.org/2000/svg">
<mask id="path-1-inside-1_20_52" fill="white">
<path fill-rule="evenodd" clip-rule="evenodd" d="M15.0775 13.5415L15.0002 18.5024C14.9763 20.0418 16.6277 21.0299 17.9729 20.281L32.4176 12.2387C33.7628 11.4897 33.7927 9.56548 32.4716 8.775L18.2844 0.286668C16.9632 -0.503808 15.2817 0.432364 15.2578 1.97178L15.1732 7.39987L3.28438 0.286667C1.9632 -0.503809 0.281746 0.432363 0.257763 1.97178L0.000240326 18.5024C-0.0237427 20.0418 1.62773 21.0299 2.97289 20.281L15.0775 13.5415Z"/>
</mask>
<path fill-rule="evenodd" clip-rule="evenodd" d="M15.0775 13.5415L15.0002 18.5024C14.9763 20.0418 16.6277 21.0299 17.9729 20.281L32.4176 12.2387C33.7628 11.4897 33.7927 9.56548 32.4716 8.775L18.2844 0.286668C16.9632 -0.503808 15.2817 0.432364 15.2578 1.97178L15.1732 7.39987L3.28438 0.286667C1.9632 -0.503809 0.281746 0.432363 0.257763 1.97178L0.000240326 18.5024C-0.0237427 20.0418 1.62773 21.0299 2.97289 20.281L15.0775 13.5415Z" fill="#D9D9D9" fill-opacity="0.11"/>
<path d="M15.0775 13.5415L14.1046 11.7941L17.1312 10.109L17.0773 13.5727L15.0775 13.5415ZM15.0002 18.5024L17 18.5336V18.5336L15.0002 18.5024ZM17.9729 20.281L18.9458 22.0284L18.9458 22.0284L17.9729 20.281ZM32.4176 12.2387L31.4447 10.4913H31.4447L32.4176 12.2387ZM32.4716 8.775L31.4447 10.4913V10.4913L32.4716 8.775ZM18.2844 0.286668L17.2575 2.00293V2.00293L18.2844 0.286668ZM15.2578 1.97178L13.258 1.94062V1.94062L15.2578 1.97178ZM15.1732 7.39987L17.173 7.43103L17.119 10.8947L14.1463 9.11614L15.1732 7.39987ZM3.28438 0.286667L2.25752 2.00293V2.00293L3.28438 0.286667ZM0.257763 1.97178L-1.74199 1.94062V1.94062L0.257763 1.97178ZM0.000240326 18.5024L2 18.5336V18.5336L0.000240326 18.5024ZM2.97289 20.281L2 18.5336L2.97289 20.281ZM17.0773 13.5727L17 18.5336L13.0005 18.4712L13.0778 13.5104L17.0773 13.5727ZM17 18.5336L17 18.5336L18.9458 22.0284C16.2555 23.5263 12.9525 21.5501 13.0005 18.4712L17 18.5336ZM17 18.5336L31.4447 10.4913L33.3905 13.9861L18.9458 22.0284L17 18.5336ZM31.4447 10.4913L31.4447 10.4913L33.4984 7.05874C36.1408 8.63969 36.0808 12.4882 33.3905 13.9861L31.4447 10.4913ZM31.4447 10.4913L17.2575 2.00293L19.3112 -1.4296L33.4984 7.05874L31.4447 10.4913ZM17.2575 2.00293L17.2575 2.00293L13.258 1.94062C13.306 -1.13821 16.6689 -3.01055 19.3112 -1.4296L17.2575 2.00293ZM17.2575 2.00293L17.173 7.43103L13.1734 7.36872L13.258 1.94062L17.2575 2.00293ZM14.1463 9.11614L2.25752 2.00293L4.31124 -1.4296L16.2001 5.68361L14.1463 9.11614ZM2.25752 2.00293L2.25752 2.00293L-1.74199 1.94062C-1.69403 -1.13821 1.66888 -3.01055 4.31124 -1.4296L2.25752 2.00293ZM2.25752 2.00293L2 18.5336L-1.99952 18.4712L-1.74199 1.94062L2.25752 2.00293ZM2 18.5336L2 18.5336L3.9458 22.0284C1.25547 23.5263 -2.04748 21.5501 -1.99952 18.4712L2 18.5336ZM2 18.5336L14.1046 11.7941L16.0504 15.289L3.9458 22.0284L2 18.5336Z" fill="white" mask="url(#path-1-inside-1_20_52)"/>
</svg>
